<?xml version="1.0" standalone="no"?>
<!DOCTYPE svg PUBLIC "-//W3C//DTD SVG 20010904//EN"
 "http://www.w3.org/TR/2001/REC-SVG-20010904/DTD/svg10.dtd">
<svg version="1.0" xmlns="http://www.w3.org/2000/svg"
 width="260.000000pt" height="260.000000pt" viewBox="0 0 260.000000 260.000000"
 preserveAspectRatio="xMidYMid meet">
<metadata>
Created by potrace 1.14, written by Peter Selinger 2001-2017
</metadata>
<g transform="translate(0.000000,260.000000) scale(0.100000,-0.100000)"
fill="#000000" stroke="none">
<path d="M1453 2570 c-13 -15 -23 -33 -23 -38 0 -5 -7 -15 -15 -22 -8 -7 -40
-51 -71 -99 -31 -47 -75 -108 -98 -136 -23 -27 -59 -77 -80 -110 -78 -120
-136 -205 -205 -294 -38 -51 -80 -108 -93 -129 -12 -20 -49 -74 -83 -118 -87
-118 -275 -379 -350 -486 -26 -37 -44 -72 -40 -78 4 -6 25 -10 48 -10 23 0 83
0 132 -1 50 -1 131 1 180 5 84 6 92 5 117 -17 28 -22 28 -23 11 -60 -10 -20
-23 -37 -29 -37 -29 0 -27 -57 4 -92 13 -15 12 -21 -12 -48 -14 -18 -26 -38
-26 -45 0 -8 -19 -23 -42 -34 -45 -22 -89 -46 -132 -74 -14 -9 -34 -17 -44
-17 -18 0 -102 -56 -102 -68 0 -4 62 -27 138 -51 75 -24 149 -52 164 -63 14
-10 31 -18 37 -18 6 0 11 -9 11 -20 0 -11 4 -20 8 -20 4 0 13 -13 19 -30 10
-26 17 -30 47 -30 19 0 38 5 42 11 10 17 -17 59 -38 59 -10 0 -18 7 -18 15 0
8 -5 15 -11 15 -6 0 -22 9 -36 20 -14 11 -21 20 -14 20 22 0 11 20 -11 21 -13
0 -17 3 -10 6 29 11 9 31 -45 43 -31 7 -64 16 -73 21 -8 4 -36 11 -63 14 -26
4 -45 10 -42 15 8 13 99 30 161 30 100 0 144 -33 210 -157 30 -56 44 -73 60
-73 25 0 40 28 24 44 -5 5 -10 20 -10 33 0 13 -4 23 -8 23 -5 0 -14 16 -22 35
-8 19 -17 35 -21 35 -4 0 -9 9 -12 20 -3 11 -13 20 -22 20 -10 0 -23 7 -29 16
-6 8 -18 16 -26 17 -8 1 -26 10 -40 20 -13 9 -37 17 -52 17 -64 0 -1 41 66 43
49 1 152 -69 149 -101 -2 -13 3 -22 11 -22 8 0 18 -9 21 -20 3 -11 11 -20 16
-20 5 0 9 -9 9 -20 0 -10 7 -23 16 -28 14 -8 14 -10 0 -21 -22 -18 -20 -34 2
-26 18 5 19 -1 18 -85 -1 -67 2 -90 12 -90 10 0 10 -5 2 -20 -6 -12 -8 -31 -4
-43 4 -12 7 -34 6 -49 0 -16 4 -28 9 -28 5 0 9 -7 9 -15 0 -8 4 -15 10 -15 5
0 7 -7 4 -15 -4 -8 -2 -15 3 -15 6 0 10 -13 9 -30 -1 -28 -4 -30 -38 -30 -30
0 -36 3 -31 16 3 8 -4 25 -16 38 -15 16 -19 26 -11 31 13 8 -5 35 -25 35 -6 0
-11 10 -11 23 1 26 -27 31 -32 5 -2 -10 1 -18 6 -18 5 0 8 -15 7 -32 -2 -18 0
-37 3 -42 3 -6 6 -20 7 -33 1 -42 -28 -22 -32 21 -9 85 -55 124 -119 101 -52
-19 -62 -18 -69 4 -3 11 -12 18 -20 15 -7 -3 -16 -1 -19 5 -4 6 -13 8 -21 4
-9 -3 -15 1 -15 8 0 20 -46 39 -59 26 -8 -8 -11 -3 -11 16 0 27 -13 36 -25 17
-12 -20 -25 -9 -19 15 7 29 -10 34 -25 7 -10 -16 -10 -15 -11 3 0 25 -21 44
-75 69 -22 11 -45 26 -52 35 -7 9 -13 12 -13 6 0 -5 -4 -4 -9 4 -11 17 -41 23
-56 12 -5 -4 -21 -6 -35 -5 -14 1 -31 -3 -37 -8 -9 -7 -15 -6 -19 6 -5 12 -10
13 -25 5 -54 -28 6 48 85 109 16 12 26 25 22 29 -21 22 -153 -105 -224 -215
-32 -51 -57 -76 -100 -102 -37 -23 -58 -43 -60 -58 -4 -27 9 -28 32 -3 19 21
108 67 196 101 30 12 68 28 83 36 64 32 152 7 286 -81 83 -55 157 -89 178 -81
9 4 13 1 11 -6 -7 -19 -62 -27 -114 -17 -39 7 -52 6 -77 -10 -29 -18 -30 -18
-48 0 -10 10 -31 22 -46 25 -15 4 -36 18 -46 31 -10 13 -23 21 -28 17 -5 -3
-16 2 -25 10 -8 9 -32 16 -52 17 -20 0 -47 2 -59 5 -12 2 -29 -3 -37 -11 -11
-11 -16 -12 -20 -2 -3 9 -8 8 -18 -3 -7 -8 -29 -15 -48 -15 -34 0 -35 -1 -38
-43 l-3 -44 35 3 c19 2 38 1 41 -3 3 -3 24 -1 46 4 31 8 51 7 94 -7 64 -20 86
-41 34 -31 -44 8 -128 14 -208 15 l-64 1 6 50 c4 30 2 52 -5 56 -13 8 -27 -14
-29 -46 -1 -17 -3 -19 -6 -7 -8 31 -31 18 -38 -21 -3 -20 -11 -44 -16 -52 -7
-11 -9 -6 -4 17 4 18 2 34 -4 38 -7 4 -11 -15 -11 -55 l0 -62 42 7 c24 4 49
12 57 19 9 7 59 11 133 11 97 0 122 -3 131 -16 10 -13 38 -16 155 -18 l144 -2
-19 25 c-13 18 -24 23 -41 19 -12 -3 -22 -1 -22 6 0 13 33 31 58 31 20 0 55
-34 65 -62 9 -26 47 -24 40 2 -3 11 -9 23 -14 26 -13 8 -11 34 3 34 16 0 68
-51 68 -67 0 -7 11 -13 25 -13 31 0 31 8 0 50 -14 19 -25 38 -25 43 0 16 53 2
64 -18 6 -11 19 -32 29 -47 l17 -26 268 -2 267 -1 -1 93 c-1 51 1 76 3 55 2
-21 11 -41 19 -44 7 -3 11 -10 8 -15 -4 -6 -1 -27 6 -49 l13 -38 68 0 c58 0
69 3 69 17 1 9 7 28 15 42 13 24 13 23 8 -17 -5 -35 -3 -43 10 -43 9 0 17 10
19 23 4 31 44 31 41 0 l-3 -23 440 0 440 0 0 27 c0 14 -7 33 -15 42 -32 33
-114 153 -166 242 -30 52 -73 113 -97 137 -46 46 -141 95 -207 108 -22 4 -56
15 -75 25 -19 10 -46 20 -60 23 -14 3 -33 11 -44 19 -17 13 -17 16 -2 60 9 26
16 59 16 73 0 21 -4 24 -19 19 -18 -5 -19 -3 -12 23 5 16 14 39 21 51 6 13 9
29 6 36 -3 8 2 28 10 45 13 24 13 37 5 62 -6 17 -8 34 -5 37 3 3 93 6 199 6
107 0 197 3 200 7 4 3 18 0 33 -8 39 -20 49 -1 19 38 -14 18 -35 55 -47 82
-11 27 -34 69 -50 93 -17 24 -30 45 -30 47 0 6 -64 109 -98 158 -17 26 -32 52
-32 59 0 6 -10 28 -22 48 -13 19 -27 44 -33 53 -5 10 -48 84 -94 165 -47 82
-95 162 -107 178 -12 17 -33 50 -46 75 -42 78 -220 384 -233 400 -6 8 -31 50
-54 93 -48 87 -70 97 -108 47z m73 -57 c15 -27 42 -70 60 -98 18 -27 44 -70
58 -95 24 -43 86 -149 133 -228 12 -20 33 -57 46 -82 13 -25 34 -61 45 -80 12
-19 31 -51 42 -70 11 -19 29 -48 40 -65 11 -16 28 -46 38 -65 52 -96 190 -333
228 -392 24 -37 44 -70 44 -73 0 -8 91 -167 106 -185 11 -13 -14 -15 -219 -12
-127 2 -233 5 -235 7 -2 2 2 13 8 25 9 16 9 25 0 36 -7 8 -9 25 -6 39 4 14 1
35 -6 48 -7 12 -13 47 -14 77 -3 137 -33 229 -104 314 -22 26 -40 52 -40 57 0
7 -36 26 -148 75 -41 17 -72 17 -95 0 -15 -12 -25 -12 -64 0 -61 19 -127 18
-143 -1 -7 -8 -29 -15 -49 -15 -46 0 -101 -36 -132 -87 -13 -21 -38 -53 -56
-71 -22 -22 -33 -42 -33 -61 0 -16 -7 -34 -16 -42 -42 -34 -105 -206 -102
-274 4 -58 -2 -84 -18 -78 -10 4 -17 -1 -21 -16 -5 -20 -10 -21 -199 -23 -107
-1 -201 -2 -211 -2 -30 -2 -24 21 19 75 24 30 61 81 83 114 22 33 60 86 85
117 43 54 94 123 115 157 6 9 27 37 48 62 20 26 37 52 37 58 0 6 7 14 15 17 8
4 15 11 15 16 0 5 9 22 21 36 11 15 35 50 52 77 18 28 48 72 67 98 46 63 140
188 152 201 5 6 27 38 48 71 22 33 60 87 84 120 25 33 71 98 103 145 55 81 85
120 90 120 1 0 14 -21 29 -47z m-169 -814 c-12 -7 -16 -17 -11 -31 3 -12 1
-24 -6 -28 -7 -4 -10 -13 -6 -19 5 -7 21 -3 50 11 29 14 50 18 62 13 16 -7 13
-10 -18 -19 -20 -6 -40 -14 -44 -18 -4 -5 -15 -8 -24 -8 -30 0 -69 -39 -76
-75 -6 -36 -27 -61 -43 -51 -5 3 -7 16 -3 28 4 17 2 20 -12 15 -10 -4 -30 -7
-46 -7 -34 0 -90 -49 -90 -78 0 -12 -5 -33 -10 -47 -9 -22 -13 -25 -25 -15
-18 15 -10 77 14 105 9 11 23 29 31 39 14 18 13 19 -7 14 -45 -12 -12 25 42
48 20 8 41 26 47 39 6 14 19 25 29 25 10 0 21 5 24 10 3 6 18 10 32 10 14 0
38 11 55 25 16 14 35 25 41 25 7 0 4 -5 -6 -11z m250 -36 c11 -32 46 -63 70
-63 16 0 27 -8 33 -26 13 -34 13 -34 -14 -34 -23 0 -66 44 -66 68 0 11 -23 22
-46 22 -8 0 -14 -7 -14 -15 0 -8 4 -15 9 -15 14 0 41 -30 41 -45 0 -12 -6 -12
-27 -4 -46 17 -63 39 -63 79 0 44 5 50 42 50 18 0 31 -6 35 -17z m-207 -93 c0
-5 -12 -10 -27 -9 -25 0 -26 1 -8 9 27 12 35 12 35 0z m23 -37 c-7 -2 -19 -2
-25 0 -7 3 -2 5 12 5 14 0 19 -2 13 -5z m167 -43 c11 -21 20 -49 20 -60 0 -11
7 -23 15 -26 8 -4 15 -17 15 -29 0 -13 5 -27 10 -30 6 -4 8 -11 4 -16 -3 -5
-11 -6 -17 -2 -6 4 -24 6 -39 5 -15 -1 -28 2 -28 8 0 5 -6 10 -14 10 -21 0
-36 -84 -36 -201 0 -98 0 -100 -22 -97 -15 2 -24 11 -26 26 -4 28 -45 30 -64
4 -7 -10 -21 -21 -31 -25 -9 -4 -20 -20 -23 -37 -8 -40 -19 -45 -43 -21 -11
11 -22 17 -25 13 -3 -3 -6 2 -6 10 0 9 -4 18 -10 20 -5 2 -17 32 -26 68 -17
65 -17 66 6 123 24 59 40 66 40 17 0 -46 10 -60 41 -60 24 0 29 -4 29 -25 0
-33 27 -33 59 0 24 26 41 32 41 15 0 -5 7 -7 15 -4 21 9 20 98 -2 135 -16 27
-22 29 -75 29 -59 0 -108 -15 -108 -34 0 -6 -4 -5 -9 3 -17 26 3 62 42 76 48
16 67 33 83 72 16 37 80 66 95 42 6 -10 1 -20 -16 -34 -36 -30 -33 -47 5 -33
35 12 70 52 70 79 0 28 7 23 30 -21z m190 25 c7 -8 8 -15 2 -15 -5 0 -15 7
-22 15 -7 8 -8 15 -2 15 5 0 15 -7 22 -15z m-59 -15 c30 -16 23 -26 -16 -22
-44 5 -70 32 -31 32 15 0 36 -5 47 -10z m-551 -60 c-11 -11 -20 -28 -20 -38 0
-10 -9 -28 -20 -40 -26 -28 -45 -29 -30 -3 5 11 10 28 10 38 0 30 29 63 56 63
l24 0 -20 -20z m120 -10 c0 -5 -16 -10 -36 -10 -21 0 -33 4 -29 10 3 6 19 10
36 10 16 0 29 -4 29 -10z m460 -10 c0 -5 -2 -10 -4 -10 -3 0 -8 5 -11 10 -3 6
-1 10 4 10 6 0 11 -4 11 -10z m-539 -107 c-12 -20 -14 -14 -5 12 4 9 9 14 11
11 3 -2 0 -13 -6 -23z m-131 -13 c0 -27 -28 -64 -62 -81 -48 -24 -50 -8 -3 21
36 22 43 34 25 45 -18 11 -10 25 15 25 14 0 25 -4 25 -10z m14 -85 c-4 -8 -11
-15 -16 -15 -6 0 -5 6 2 15 7 8 14 15 16 15 2 0 1 -7 -2 -15z m598 -42 c-6 -3
-9 -9 -6 -14 3 -6 0 -16 -6 -24 -6 -8 -9 -19 -5 -25 3 -5 -1 -10 -9 -10 -9 0
-18 -11 -22 -23 -4 -19 -11 -23 -30 -19 -40 7 -62 82 -24 82 11 0 20 5 20 10
0 6 8 10 18 10 11 0 27 9 37 20 14 15 21 18 29 9 8 -8 7 -13 -2 -16z m-662 2
c0 -2 -10 -10 -22 -16 -21 -11 -22 -11 -9 4 13 16 31 23 31 12z m-79 -42 c-8
-15 -10 -15 -11 -2 0 17 10 32 18 25 2 -3 -1 -13 -7 -23z m209 -3 c-11 -21
-30 -27 -30 -10 0 6 5 10 11 10 5 0 7 5 4 10 -3 6 1 10 10 10 13 0 14 -4 5
-20z m774 -126 c9 -24 7 -27 -9 -10 -17 17 -19 26 -6 26 5 0 12 -7 15 -16z
m-343 -4 c17 0 19 -5 13 -35 -4 -25 -1 -43 11 -61 9 -15 12 -23 5 -19 -7 4
-21 28 -33 54 -11 25 -27 52 -36 59 -14 12 -14 13 2 8 10 -3 27 -6 38 -6z
m-188 -20 c-3 -11 -9 -20 -14 -20 -14 0 -11 28 4 33 6 3 13 6 14 6 0 1 -1 -8
-4 -19z m-443 -32 c0 -16 -3 -19 -11 -11 -6 6 -8 16 -5 22 11 17 16 13 16 -11z
m264 -15 c-3 -10 -11 -28 -17 -41 -8 -17 -8 -25 1 -30 8 -6 8 -17 -2 -46 -13
-37 -14 -38 -25 -18 -16 29 -14 77 4 92 8 7 15 18 15 24 0 10 19 36 27 36 1 0
0 -8 -3 -17z m107 -40 c-10 -17 -10 -16 -11 3 0 23 13 41 18 25 2 -6 -1 -18
-7 -28z m106 0 c4 -10 12 -22 20 -26 7 -4 13 -15 13 -23 0 -10 11 -5 32 16 30
30 33 31 45 14 7 -10 13 -31 13 -47 0 -25 -2 -28 -16 -17 -13 11 -16 10 -21
-9 -4 -17 -8 -19 -20 -9 -20 16 -35 -7 -28 -47 3 -16 2 -24 -1 -16 -5 11 -10
8 -19 -9 -11 -21 -12 -21 -19 19 -6 41 -22 54 -32 26 -8 -21 22 -91 37 -87 16
4 29 -17 29 -45 0 -29 5 -29 42 5 61 54 75 72 88 112 13 41 14 41 26 18 8 -13
13 -43 14 -68 0 -32 8 -57 26 -83 14 -21 23 -41 21 -44 -3 -3 -14 10 -24 29
l-18 33 -3 -33 c-2 -18 1 -39 6 -45 14 -18 23 -49 13 -42 -22 13 -53 120 -47
163 4 32 3 43 -7 40 -28 -10 -15 -168 18 -208 18 -21 29 -96 16 -105 -7 -4
-11 5 -11 24 0 17 -4 31 -10 31 -5 0 -10 -12 -10 -26 0 -23 -2 -25 -17 -13
-22 19 -53 88 -53 121 0 14 -3 33 -6 42 -11 29 -24 17 -24 -21 0 -29 -3 -34
-10 -23 -17 26 -30 -8 -30 -83 0 -60 -4 -74 -34 -121 -19 -29 -37 -62 -40 -72
-3 -11 -4 5 -2 34 3 48 1 53 -15 49 -15 -4 -19 0 -19 20 0 18 -4 24 -15 20
-11 -5 -12 -1 -5 19 20 51 7 120 -15 84 -11 -18 -45 14 -51 47 -3 18 -3 45 2
60 l8 28 5 -33 c8 -42 23 -42 34 0 5 18 16 41 24 50 9 10 17 38 18 65 0 27 7
61 13 76 7 16 12 33 12 38 0 20 25 89 33 89 4 0 11 -8 14 -17z m477 -14 c-10
-16 -24 -9 -24 12 0 18 2 19 15 9 8 -7 12 -16 9 -21z m-774 -54 c0 -8 -4 -15
-10 -15 -5 0 -10 7 -10 15 0 8 5 15 10 15 6 0 10 -7 10 -15z m-270 -50 c0 -8
-4 -15 -10 -15 -5 0 -10 7 -10 15 0 8 5 15 10 15 6 0 10 -7 10 -15z m380 -11
c7 -17 15 -24 25 -20 24 9 19 -61 -6 -92 l-22 -27 7 28 c4 16 3 34 -2 40 -9
11 -21 97 -15 97 2 0 8 -12 13 -26z m-123 -96 c-3 -8 -6 -5 -6 6 -1 11 2 17 5
13 3 -3 4 -12 1 -19z m123 -100 c-1 -38 -3 -48 -10 -37 -8 14 -3 89 6 89 2 0
4 -24 4 -52z m286 -133 c8 -57 -2 -99 -22 -91 -19 7 -37 -39 -30 -76 6 -30 -5
-36 -23 -14 -15 17 -5 61 21 97 11 14 22 50 25 82 7 65 19 66 29 2z m541 -82
c-3 -10 -5 -2 -5 17 0 19 2 27 5 18 2 -10 2 -26 0 -35z m80 -25 c-3 -8 -6 -5
-6 6 -1 11 2 17 5 13 3 -3 4 -12 1 -19z m-207 -27 c0 -5 -9 -19 -20 -32 l-21
-24 16 33 c15 31 25 41 25 23z m295 -41 c16 -17 16 -20 3 -15 -9 4 -19 13 -22
21 -7 19 -2 18 19 -6z m-425 -8 c0 -5 -6 -17 -14 -28 -14 -18 -16 -18 -32 -2
-9 9 -13 21 -10 27 8 13 56 15 56 3z m44 -7 c-4 -8 -8 -15 -10 -15 -2 0 -4 7
-4 15 0 8 4 15 10 15 5 0 7 -7 4 -15z m-444 -26 c0 -5 -4 -9 -10 -9 -5 0 -10
7 -10 16 0 8 5 12 10 9 6 -3 10 -10 10 -16z m485 -6 c-16 -67 -68 -203 -77
-203 -14 0 -3 40 40 142 38 90 49 109 37 61z m-274 -66 c-11 -24 -21 -51 -21
-60 0 -9 -7 -17 -16 -17 -9 0 -14 3 -12 8 2 4 12 30 22 57 19 47 35 69 44 60
3 -2 -5 -24 -17 -48z m409 6 c27 -25 22 -30 -12 -10 -25 13 -47 37 -48 51 0 9
17 -3 60 -41z m-262 15 c22 -22 12 -29 -18 -13 -16 9 -30 18 -30 20 0 10 36 5
48 -7z m379 -25 c-3 -10 -5 -4 -5 12 0 17 2 24 5 18 2 -7 2 -21 0 -30z m-863
-25 c-4 -29 -8 -63 -8 -75 -1 -24 -15 -32 -17 -10 -5 57 9 137 23 137 6 0 7
-19 2 -52z m67 -45 c-2 -46 -15 -68 -34 -56 -8 5 0 99 10 116 12 20 27 -17 24
-60z m-390 15 c6 -23 3 -27 -20 -31 -14 -3 -29 -3 -33 0 -10 5 -10 47 -1 57
15 15 47 0 54 -26z m1129 22 c8 -5 12 -12 9 -15 -8 -8 -39 5 -39 16 0 11 11
11 30 -1z m-2029 -43 c-8 -8 -11 -3 -11 19 1 25 2 27 11 11 8 -14 8 -22 0 -30z
m1959 33 c0 -5 -2 -10 -4 -10 -3 0 -8 5 -11 10 -3 6 -1 10 4 10 6 0 11 -4 11
-10z m274 -26 c12 -32 6 -44 -23 -44 -35 0 -49 16 -21 23 11 3 20 12 20 21 0
21 16 21 24 0z m-129 -4 c3 -5 -3 -10 -14 -10 -11 0 -23 5 -26 10 -3 6 3 10
14 10 11 0 23 -4 26 -10z m-594 -53 c-8 -8 -11 -5 -11 9 0 27 14 41 18 19 2
-9 -1 -22 -7 -28z m519 1 c0 -18 -17 -7 -29 19 -13 28 -13 28 8 9 12 -11 21
-23 21 -28z m-1630 22 c0 -12 -8 -12 -35 0 -18 8 -17 9 8 9 15 1 27 -3 27 -9z
m1310 -12 c0 -16 -3 -19 -11 -11 -6 6 -8 16 -5 22 11 17 16 13 16 -11z"/>
<path d="M1227 1619 c-16 -23 -16 -25 0 -36 24 -18 32 -16 54 10 27 32 25 49
-5 37 -17 -6 -26 -5 -28 2 -3 7 -12 1 -21 -13z"/>
<path d="M1350 610 c0 -17 4 -38 8 -48 5 -9 21 -42 35 -72 15 -30 27 -65 27
-77 0 -31 27 -19 33 15 5 24 -6 99 -20 142 -4 12 -7 11 -13 -5 -8 -18 -9 -18
-10 5 -1 27 -31 70 -49 70 -6 0 -11 -14 -11 -30z"/>
<path d="M1600 480 c0 -5 5 -10 10 -10 6 0 10 5 10 10 0 6 -4 10 -10 10 -5 0
-10 -4 -10 -10z"/>
<path d="M454 536 c-9 -24 2 -45 31 -56 14 -5 25 -14 25 -19 0 -5 12 -16 26
-26 20 -13 28 -14 40 -4 12 10 16 8 21 -9 3 -12 9 -23 14 -23 10 -2 25 -5 37
-9 4 -1 18 -3 32 -4 14 -1 37 -8 53 -16 33 -16 42 -10 33 25 -4 16 -17 29 -34
35 -15 6 -35 15 -44 20 -10 6 -25 10 -33 10 -8 0 -15 7 -15 15 0 21 -28 19
-33 -2 -4 -15 -5 -14 -6 3 -1 16 -12 23 -53 33 -29 6 -60 19 -70 28 -16 14
-18 14 -24 -1z"/>
<path d="M780 375 c0 -8 5 -15 10 -15 6 0 10 7 10 15 0 8 -4 15 -10 15 -5 0
-10 -7 -10 -15z"/>
<path d="M920 301 c0 -12 37 -24 50 -16 20 12 10 25 -20 25 -16 0 -30 -4 -30
-9z"/>
<path d="M950 256 c0 -23 20 -30 46 -15 34 18 30 29 -11 29 -24 0 -35 -5 -35
-14z"/>
<path d="M993 224 c-8 -21 13 -42 28 -27 13 13 5 43 -11 43 -6 0 -13 -7 -17
-16z"/>
</g>
</svg>
